<?xml version="1.0" standalone="no"?>
<!DOCTYPE svg PUBLIC "-//W3C//DTD SVG 20010904//EN"
 "http://www.w3.org/TR/2001/REC-SVG-20010904/DTD/svg10.dtd">
<svg version="1.0" xmlns="http://www.w3.org/2000/svg"
 width="615.000000pt" height="615.000000pt" viewBox="0 0 615.000000 615.000000"
 preserveAspectRatio="xMidYMid meet">
<metadata>
Created by potrace 1.14, written by Peter Selinger 2001-2017
</metadata>
<g transform="translate(0.000000,615.000000) scale(0.100000,-0.100000)"
fill="#000000" stroke="none">
<path d="M2944 5941 c-2 -3 -32 -6 -67 -8 -76 -3 -222 -18 -222 -23 0 -1 -13
-3 -30 -6 -47 -6 -80 -11 -80 -13 0 -1 -11 -4 -25 -6 -34 -5 -106 -20 -120
-25 -3 -1 -9 -3 -15 -5 -5 -1 -12 -3 -15 -4 -7 -3 -28 -9 -65 -16 -16 -3 -35
-11 -42 -17 -7 -6 -13 -8 -13 -5 0 6 -165 -49 -185 -61 -5 -4 -15 -7 -21 -8
-6 -1 -33 -12 -60 -23 -27 -12 -50 -22 -51 -22 -9 2 -240 -120 -316 -166 -458
-277 -853 -701 -1078 -1156 -28 -56 -57 -114 -64 -128 -13 -24 -83 -200 -89
-224 -2 -5 -6 -19 -10 -30 -5 -11 -14 -37 -22 -57 -8 -21 -11 -38 -8 -38 4 0
1 -7 -6 -15 -7 -9 -10 -18 -7 -22 4 -3 3 -11 -2 -17 -6 -7 -12 -24 -15 -39
-12 -54 -24 -108 -32 -139 -6 -26 -11 -49 -19 -95 -14 -85 -14 -94 1 -100 20
-7 26 0 29 39 2 18 4 33 5 33 2 0 6 25 14 75 2 14 5 26 6 28 1 1 4 11 5 22 1
11 4 23 5 28 2 4 4 12 5 17 2 6 4 12 5 15 3 8 11 44 15 65 2 11 4 21 5 23 2 1
3 5 4 10 2 4 8 25 14 47 6 22 12 43 12 48 0 4 6 23 14 42 8 19 13 35 10 35 -2
0 2 10 11 23 8 12 16 32 18 42 2 11 10 34 17 50 7 17 33 75 57 130 24 55 49
109 54 119 6 11 23 40 37 65 227 411 542 752 928 1007 126 83 158 101 305 175
98 49 165 78 175 78 3 0 16 7 30 15 13 9 24 14 24 11 0 -3 17 2 38 11 30 13
146 53 175 60 4 1 8 2 10 4 1 1 9 3 17 5 16 4 48 12 80 20 11 3 29 7 40 10 11
3 30 8 43 11 12 3 31 7 42 8 11 2 20 4 20 6 0 1 11 3 25 5 14 2 41 7 60 10 19
4 49 8 65 10 17 1 30 4 30 5 0 1 23 4 50 6 28 2 79 6 115 9 80 6 353 6 435 0
132 -11 217 -22 309 -41 11 -2 37 -7 56 -10 46 -8 65 -12 65 -14 0 -1 7 -3 15
-5 8 -2 25 -6 38 -9 12 -3 30 -8 40 -10 9 -2 29 -9 45 -15 15 -6 27 -9 27 -6
0 2 29 -7 65 -20 36 -13 65 -21 65 -19 0 3 11 -3 25 -12 14 -9 25 -13 25 -10
0 4 19 -3 43 -15 23 -12 43 -21 44 -21 8 5 248 -114 348 -171 381 -219 720
-548 962 -931 63 -100 238 -443 248 -486 5 -25 30 -88 38 -97 5 -7 6 -13 2
-13 -4 0 -2 -7 5 -15 7 -8 10 -15 6 -15 -3 0 0 -16 8 -35 8 -19 12 -35 9 -35
-3 0 0 -7 7 -15 7 -8 10 -15 6 -15 -3 0 0 -15 8 -34 8 -19 12 -36 10 -39 -3
-2 0 -16 6 -31 5 -15 13 -41 16 -59 8 -45 12 -62 14 -62 1 0 4 -11 5 -25 2
-14 7 -43 10 -65 17 -104 25 -171 28 -230 1 -27 5 -54 8 -60 7 -12 2 -338 -6
-415 -3 -30 -8 -77 -10 -105 -2 -27 -4 -50 -5 -50 -1 0 -3 -13 -6 -30 -6 -53
-13 -90 -15 -90 -1 0 -3 -9 -5 -20 -10 -67 -13 -80 -15 -80 -1 0 -3 -9 -5 -20
-2 -11 -5 -29 -7 -40 -5 -24 13 -66 25 -59 4 3 6 10 2 15 -3 5 0 16 6 24 7 8
10 15 7 15 -3 0 1 21 9 46 7 26 11 50 9 54 -3 5 -1 11 4 15 5 3 10 13 10 23 0
9 3 31 6 47 3 17 8 48 10 70 2 22 4 40 5 40 2 0 7 43 16 140 7 76 7 391 0 470
-9 98 -14 148 -20 180 -4 17 -8 44 -10 60 -7 56 -18 108 -26 131 -5 12 -6 25
-3 28 3 3 1 12 -5 19 -7 8 -10 16 -7 18 2 3 -3 27 -11 54 -9 28 -18 61 -20 74
-3 13 -10 34 -16 45 -6 12 -10 21 -9 21 5 0 -12 60 -22 80 -6 11 -12 28 -14
38 -2 10 -8 28 -15 40 -7 12 -13 27 -14 33 -1 6 -11 31 -21 55 -11 24 -20 47
-21 52 -1 4 -33 69 -72 144 -236 459 -607 859 -1058 1142 -77 48 -280 158
-295 160 -4 0 -30 12 -57 26 -28 14 -50 22 -50 19 0 -4 -6 -2 -13 4 -10 9 -72
34 -112 46 -5 2 -17 6 -25 9 -25 10 -111 38 -134 43 -29 7 -38 10 -57 18 -9 4
-29 9 -45 11 -16 2 -29 4 -29 5 0 2 -34 10 -60 15 -11 2 -20 4 -20 5 0 2 -9 4
-20 6 -30 5 -81 13 -117 20 -18 3 -49 7 -68 9 -19 2 -35 4 -35 5 0 3 -66 9
-145 14 -36 2 -65 5 -65 6 0 5 -296 6 -301 1z"/>
<path d="M3621 4916 c-4 -6 -17 -31 -29 -56 -11 -25 -44 -94 -72 -155 -29 -60
-53 -114 -54 -120 -1 -5 -10 -25 -20 -43 -9 -19 -32 -68 -51 -110 -18 -42 -79
-176 -135 -297 -56 -121 -103 -224 -104 -230 -1 -5 -21 -50 -45 -98 -35 -70
-52 -94 -87 -118 -24 -16 -44 -27 -44 -24 0 3 -9 1 -21 -5 -11 -7 -18 -15 -14
-18 4 -4 101 -7 216 -7 190 -1 241 5 192 21 -10 4 -41 17 -70 29 -60 28 -74
60 -49 119 8 20 16 40 17 44 2 4 16 36 32 72 16 36 30 70 31 76 1 6 9 22 17
35 l16 23 255 1 256 0 28 -55 c15 -30 29 -59 30 -65 1 -5 13 -32 25 -60 13
-27 24 -52 24 -55 1 -3 5 -20 9 -37 4 -18 5 -41 1 -52 -5 -16 -70 -51 -139
-75 -10 -4 -16 -10 -12 -14 10 -9 606 -10 606 0 0 4 -21 19 -47 32 -59 30
-131 109 -139 151 -1 6 -23 55 -49 110 -27 55 -49 105 -50 110 -2 6 -20 46
-40 90 -21 44 -39 85 -40 90 -2 6 -20 46 -40 90 -21 44 -39 85 -40 90 -2 6
-19 45 -39 87 -20 42 -36 78 -36 81 0 3 -21 50 -47 104 -25 54 -47 100 -47
103 -4 26 -61 140 -70 141 -58 6 -118 4 -125 -5z m89 -137 c0 -8 11 -32 70
-164 13 -27 24 -54 25 -60 2 -5 22 -50 46 -100 23 -49 43 -94 45 -100 1 -5 19
-46 39 -90 21 -44 39 -84 40 -90 2 -5 23 -54 48 -108 26 -53 47 -101 47 -105
1 -4 9 -23 19 -42 83 -168 88 -180 72 -181 -9 0 -28 -2 -42 -4 -28 -3 -27 -4
-45 73 -1 8 -6 21 -10 30 -4 9 -8 23 -10 31 -1 8 -16 41 -32 75 -16 34 -46
102 -67 151 -20 50 -44 102 -51 117 -8 15 -14 29 -13 30 1 2 -9 23 -21 48 -13
25 -25 50 -26 57 -1 7 -20 52 -42 100 -90 199 -137 308 -137 323 -1 26 16 42
31 29 8 -6 14 -15 14 -20z m-90 -164 c0 -9 8 -30 17 -48 9 -18 18 -34 18 -37
1 -3 9 -23 20 -45 10 -22 19 -44 20 -50 2 -5 20 -46 40 -90 21 -44 39 -85 40
-91 2 -5 12 -29 23 -52 11 -23 17 -42 14 -43 -25 -4 -422 -3 -422 1 0 8 60
148 103 243 20 42 37 81 38 85 31 92 89 175 89 127z"/>
<path d="M1765 4890 c-2 -4 29 -21 69 -39 46 -20 78 -41 86 -56 19 -35 20
-1019 1 -1053 -7 -14 -43 -38 -87 -58 -41 -19 -73 -38 -70 -42 4 -6 1063 -9
1086 -3 8 2 6 328 -2 336 -4 4 -28 -35 -53 -86 -79 -159 -63 -152 -367 -153
-203 -1 -237 1 -240 14 -2 8 -3 236 -2 505 1 418 3 495 16 526 13 30 28 41 92
70 42 19 76 36 76 39 0 8 -600 8 -605 0z m327 -99 c4 -1 4 -11 1 -23 -3 -13
-7 -247 -7 -520 -1 -273 -5 -500 -9 -504 -4 -4 -16 -8 -26 -9 -17 -1 -18 5
-14 69 7 101 11 909 4 921 -9 16 -7 59 3 66 5 4 16 5 25 4 9 -2 19 -4 23 -4z"/>
<path d="M2275 3332 c-2 -2 -17 -6 -32 -8 -54 -6 -101 -22 -179 -59 -103 -49
-233 -177 -282 -276 -19 -36 -35 -74 -37 -85 -2 -10 -4 -19 -5 -19 -2 0 -7
-21 -17 -65 -7 -31 -7 -246 0 -280 11 -53 16 -69 27 -89 6 -12 8 -21 4 -21 -3
0 1 -11 10 -25 9 -14 14 -25 11 -25 -12 0 70 -118 114 -163 78 -81 207 -154
306 -173 17 -4 41 -8 55 -11 39 -7 234 -11 245 -5 5 3 21 7 35 8 60 5 167 44
238 86 87 52 182 153 229 244 23 43 42 82 42 87 1 4 1 8 2 10 0 1 2 9 4 17 2
8 7 26 10 40 29 120 17 321 -24 398 -6 12 -9 22 -6 22 4 0 -9 28 -27 62 -79
148 -257 285 -405 313 -16 3 -39 8 -53 11 -29 7 -258 13 -265 6z m175 -88 c19
-1 35 -3 35 -4 0 -1 7 -3 15 -5 38 -7 110 -49 142 -83 81 -84 122 -204 133
-382 8 -124 1 -222 -20 -310 -3 -14 -7 -29 -8 -35 -2 -5 -6 -15 -9 -21 -4 -6
-9 -22 -12 -36 -6 -34 -64 -124 -107 -166 -37 -36 -96 -70 -138 -80 -51 -11
-169 -4 -219 12 -72 24 -142 91 -186 176 -19 39 -33 70 -30 70 2 0 0 9 -6 19
-5 11 -13 37 -16 58 -3 21 -8 52 -10 68 -7 48 -7 276 0 320 4 22 8 49 10 60 6
38 45 137 71 180 23 41 110 126 127 126 4 0 27 8 51 18 24 10 55 17 69 16 14
-2 31 1 39 5 7 5 18 6 24 2 5 -4 26 -7 45 -8z m440 -276 c14 -24 25 -45 26
-48 0 -3 8 -30 18 -61 9 -31 18 -78 21 -105 2 -27 6 -58 8 -69 2 -11 2 -24 -2
-30 -3 -5 -7 -28 -8 -50 -2 -54 -8 -79 -40 -155 -28 -68 -53 -109 -65 -110 -9
0 -6 17 12 80 18 63 30 165 32 260 0 57 -16 235 -22 235 -1 0 -3 11 -5 25 -2
14 -6 35 -10 48 -12 37 10 25 35 -20z m-957 20 c-4 -7 -8 -17 -10 -23 -1 -5
-4 -21 -8 -35 -3 -14 -8 -43 -11 -65 -7 -49 -8 -320 -1 -355 18 -91 25 -125
27 -125 1 0 3 -10 6 -22 8 -46 -16 -21 -52 53 -21 41 -39 83 -40 92 -1 9 -6
31 -10 47 -8 34 -9 179 -1 240 9 69 71 205 94 205 9 0 11 -5 6 -12z"/>
<path d="M5077 3260 c-43 -92 -128 -277 -168 -365 -9 -22 -41 -89 -69 -150
-29 -60 -53 -114 -55 -120 -1 -5 -16 -39 -33 -75 -16 -36 -64 -139 -106 -230
-42 -90 -87 -175 -99 -188 -24 -26 -97 -68 -110 -64 -5 2 -7 -3 -5 -10 4 -10
53 -13 212 -14 114 0 209 3 212 8 3 5 -26 23 -65 40 -49 21 -71 37 -72 49 -1
11 -2 29 -3 42 -1 12 3 28 8 36 6 8 10 17 10 20 -1 3 6 22 16 41 10 19 18 37
18 40 1 3 12 31 26 63 15 32 26 61 26 66 0 15 29 17 284 16 235 -1 249 -2 259
-21 6 -10 12 -23 13 -29 1 -5 19 -46 39 -90 43 -90 42 -88 50 -132 11 -57 -10
-76 -134 -124 -13 -5 -21 -13 -17 -17 9 -9 606 -11 611 -2 3 4 -20 20 -50 35
-83 42 -113 85 -215 320 -29 66 -71 158 -93 205 -22 47 -41 90 -42 95 -5 19
-106 240 -117 252 -6 7 -8 13 -4 13 4 0 -4 19 -16 43 -12 23 -23 47 -24 52 -1
6 -17 44 -36 85 -19 41 -35 78 -36 83 -1 4 -13 29 -26 56 l-25 48 -65 -1 -64
0 -35 -76z m113 -49 c0 -5 18 -48 40 -95 21 -48 40 -90 41 -94 0 -4 10 -25 22
-47 11 -22 20 -42 20 -45 -1 -3 9 -23 20 -45 11 -22 22 -44 23 -50 1 -5 23
-55 49 -110 26 -55 49 -105 50 -111 2 -6 20 -46 40 -90 21 -43 39 -83 40 -89
2 -5 19 -45 38 -88 20 -42 36 -80 36 -82 1 -3 12 -28 27 -56 14 -28 23 -53 20
-56 -12 -12 -66 -10 -77 3 -6 8 -8 14 -5 14 4 0 4 6 -1 13 -4 6 -8 21 -9 32
-1 11 -7 34 -14 50 -7 17 -14 35 -15 41 -2 7 -17 43 -35 80 -17 38 -35 78 -40
89 -4 11 -23 52 -41 90 -17 39 -33 75 -35 82 -1 7 -14 37 -28 68 -14 30 -25
56 -24 58 0 1 -10 22 -22 47 -13 25 -25 50 -26 55 -1 6 -19 46 -40 90 -20 44
-39 85 -40 90 -2 6 -14 36 -27 68 -25 60 -25 97 -1 97 8 0 14 -4 14 -9z m0
-372 c0 -5 18 -48 40 -96 23 -49 50 -107 60 -130 11 -23 16 -44 12 -45 -4 -2
-99 -3 -212 -3 -241 1 -226 -11 -160 130 18 39 34 75 35 80 1 6 19 46 40 90
20 44 38 85 39 90 1 6 13 30 25 54 l23 45 49 -104 c27 -56 49 -107 49 -111z"/>
<path d="M265 3310 c-2 -4 35 -27 82 -51 59 -30 88 -51 91 -64 5 -28 5 -994 0
-1025 -3 -20 -22 -34 -91 -69 -47 -24 -85 -47 -82 -50 3 -6 770 -7 770 -1 0 1
20 4 45 5 168 13 302 89 356 202 30 65 40 176 18 218 -7 14 -11 25 -8 25 12 0
-58 89 -88 112 -41 31 -107 65 -139 72 -58 12 -70 15 -85 24 -14 8 -11 11 17
17 19 4 44 13 57 21 12 8 22 12 22 9 0 -3 20 8 44 24 63 43 108 104 122 164 1
4 3 8 4 10 8 7 6 105 -2 127 -6 14 -12 34 -14 44 -6 30 -83 105 -136 132 -27
13 -48 22 -48 19 0 -3 -10 0 -22 6 -22 12 -30 14 -113 25 -58 8 -796 11 -800
4z m685 -95 c69 -13 132 -56 159 -108 44 -86 30 -209 -32 -275 -24 -26 -90
-63 -122 -70 -33 -6 -50 -10 -50 -12 0 -8 -205 -3 -208 5 -3 9 -1 451 2 465 1
7 209 3 251 -5z m-365 -4 c10 -1 13 -1046 3 -1056 -3 -3 -15 -7 -26 -10 -19
-3 -20 0 -15 73 6 90 6 812 0 923 -3 66 -2 76 12 74 9 -2 21 -4 26 -4z m700
-114 c25 -41 26 -114 2 -157 -39 -72 -72 -92 -61 -37 12 56 10 140 -3 181 -7
21 -13 47 -13 58 0 18 1 18 29 2 15 -9 36 -30 46 -47z m-308 -451 c41 -9 118
-47 141 -69 26 -24 50 -66 59 -100 9 -41 10 -142 0 -154 -5 -7 -7 -13 -3 -13
11 0 -31 -74 -56 -97 -22 -21 -84 -52 -118 -60 -71 -17 -300 -23 -301 -8 -1 5
-2 120 -3 254 -1 228 0 244 17 250 20 8 229 6 264 -3z m341 -135 c21 -21 39
-49 41 -62 13 -100 -12 -178 -69 -219 -35 -25 -47 -22 -31 8 24 45 36 197 19
242 -16 41 -19 70 -8 70 5 0 27 -18 48 -39z"/>
<path d="M3245 3309 c-2 -3 19 -16 48 -29 93 -40 99 -44 115 -68 8 -13 16 -33
16 -45 1 -12 4 -26 7 -32 6 -12 2 -778 -5 -882 -2 -40 -7 -81 -11 -92 -7 -22
-48 -49 -117 -75 -107 -40 -78 -42 500 -42 l547 1 1 177 c0 169 -1 177 -18
162 -9 -9 -16 -19 -16 -23 2 -8 -67 -140 -86 -164 -8 -10 -36 -26 -63 -36 -40
-14 -81 -17 -260 -16 -117 0 -215 4 -220 8 -8 9 -12 986 -4 1002 3 6 6 16 7
23 5 33 38 61 108 92 42 18 74 36 70 39 -8 8 -614 9 -619 0z m332 -102 c6 -4
9 -17 6 -30 -3 -12 -6 -246 -7 -520 -1 -411 -4 -500 -15 -507 -30 -18 -40 0
-34 58 6 64 7 923 1 962 -7 41 16 58 49 37z"/>
<path d="M497 1883 c-37 -10 188 -392 350 -593 101 -126 208 -235 233 -237 17
-2 9 12 -42 68 -210 234 -352 437 -472 677 -25 50 -47 91 -49 91 -1 -1 -10 -3
-20 -6z"/>
<path d="M5660 1875 c-6 -7 -13 -20 -14 -27 -1 -7 -20 -47 -43 -88 -126 -229
-275 -441 -425 -604 -49 -52 -88 -96 -88 -98 0 -2 9 -4 20 -5 40 -3 245 239
392 461 86 132 202 351 193 366 -9 14 -21 12 -35 -5z"/>
<path d="M1426 1530 c-1 -3 -2 -79 -2 -170 l1 -165 120 0 c120 0 120 0 153 30
38 35 46 66 28 109 -7 18 -10 40 -6 52 19 51 -5 109 -55 137 -20 11 -234 18
-239 7z m220 -54 c26 -8 37 -42 23 -68 -11 -21 -4 -20 -102 -22 -82 -2 -91 2
-92 44 -2 49 8 56 82 55 37 -1 78 -5 89 -9z m-6 -135 c40 -4 62 -59 33 -83
-13 -11 -163 -20 -188 -11 -14 5 -12 82 2 91 9 6 102 8 153 3z"/>
<path d="M1850 1533 c0 -2 32 -52 72 -111 68 -101 72 -110 73 -166 0 -47 4
-60 17 -62 21 -3 25 10 23 66 -1 40 7 56 67 148 81 121 86 132 61 127 -10 -2
-21 -4 -25 -4 -4 -1 -32 -37 -61 -81 -62 -93 -60 -93 -131 15 -35 53 -51 70
-71 71 -14 0 -25 -1 -25 -3z"/>
<path d="M2654 1532 c-10 -6 -82 -159 -89 -187 -1 -5 -15 -39 -32 -75 -19 -42
-26 -67 -20 -72 18 -11 45 10 56 45 l11 32 87 0 c85 -1 88 -2 105 -31 10 -16
19 -32 20 -37 5 -13 48 -17 48 -3 0 7 -3 16 -7 20 -4 3 -8 12 -9 19 -1 7 -14
39 -28 72 -15 33 -36 80 -47 105 -53 118 -65 133 -95 112z m41 -102 c8 -16 14
-31 13 -33 -2 -2 5 -15 14 -29 14 -21 15 -29 5 -35 -18 -11 -97 -11 -106 1 -9
12 36 126 50 126 5 0 15 -13 24 -30z"/>
<path d="M2903 1533 c-10 -3 -9 -12 4 -36 9 -18 18 -36 19 -42 1 -5 14 -37 28
-70 15 -33 27 -61 26 -63 0 -1 7 -17 17 -35 9 -17 18 -34 18 -37 1 -3 7 -17
13 -32 14 -35 51 -33 69 3 21 39 75 162 77 174 3 10 30 74 47 107 14 28 11 38
-13 35 -26 -4 -24 -2 -86 -146 -27 -63 -53 -116 -58 -118 -8 -3 -49 75 -59
112 -2 6 -16 37 -31 70 -15 33 -28 64 -28 69 -1 10 -25 15 -43 9z"/>
<path d="M3335 1530 c-3 -4 9 -39 27 -77 17 -37 32 -72 33 -78 2 -5 15 -37 30
-70 16 -33 29 -66 31 -73 5 -24 25 -41 46 -37 21 5 32 12 34 23 0 4 13 34 28
67 16 33 30 68 32 79 2 10 7 23 12 30 6 6 21 39 34 73 21 52 23 63 10 68 -20
7 -37 -9 -52 -48 -7 -18 -25 -60 -41 -95 -16 -35 -29 -68 -29 -75 -1 -14 -28
-52 -34 -46 -4 4 -49 103 -86 189 -13 30 -28 59 -32 64 -10 13 -37 16 -43 6z"/>
<path d="M3807 1527 c-2 -7 -3 -84 -3 -171 1 -157 1 -159 24 -162 15 -3 22 1
23 14 4 43 5 308 2 317 -5 15 -41 16 -46 2z"/>
<path d="M4009 1530 c-13 -7 -15 -34 -15 -172 l1 -163 25 0 25 0 1 112 c0 62
4 116 8 120 4 4 17 -5 29 -22 127 -175 196 -241 209 -202 4 10 3 311 -1 327
-2 11 -41 8 -43 -3 0 -7 -2 -59 -2 -116 -1 -58 -6 -106 -11 -107 -6 -2 -50 51
-100 116 -49 66 -94 120 -100 120 -5 0 -17 -5 -26 -10z"/>
<path d="M4519 1510 c-136 -85 -103 -278 54 -317 87 -21 194 43 213 128 3 13
7 31 8 39 2 8 1 20 -3 25 -3 6 -7 19 -8 29 -5 30 -50 84 -86 103 -54 28 -128
25 -178 -7z m186 -64 c32 -36 40 -73 24 -122 -15 -48 -48 -73 -103 -78 -83 -8
-137 36 -140 114 -4 77 57 129 142 123 39 -3 52 -9 77 -37z"/>
<path d="M341 976 c-37 -13 -60 -39 -57 -64 4 -27 51 -54 99 -57 44 -3 77 -15
80 -29 6 -26 -87 -40 -142 -22 -13 5 -27 4 -34 -3 -14 -14 35 -33 97 -36 38
-1 54 3 76 22 16 13 27 30 26 38 -3 19 -37 56 -47 50 -4 -3 -11 0 -14 5 -4 6
-17 10 -28 9 -55 -5 -107 31 -69 49 17 8 94 9 121 1 7 -2 15 1 18 7 4 11 -46
38 -55 30 -2 -3 -12 -2 -21 3 -9 5 -30 3 -50 -3z"/>
<path d="M575 966 c-7 -20 0 -194 7 -202 8 -7 18 11 22 40 3 25 14 30 62 31
76 3 113 61 71 111 -22 25 -32 28 -92 30 -41 1 -68 -3 -70 -10z m144 -43 c20
-43 -28 -66 -110 -54 -5 1 -5 15 0 66 1 6 23 10 50 10 42 0 51 -3 60 -22z"/>
<path d="M896 971 c-2 -3 -22 -50 -44 -103 -41 -97 -42 -134 -3 -79 18 25 25
28 71 26 28 -1 56 -7 63 -14 6 -6 7 -11 3 -11 -5 0 -3 -7 4 -15 24 -29 29 -3
9 48 -11 29 -25 58 -31 64 -6 7 -7 13 -4 13 4 0 -2 17 -14 38 -19 34 -44 49
-54 33z m44 -81 c11 -22 17 -40 13 -41 -42 -5 -65 -5 -69 3 -7 10 17 78 28 78
4 0 17 -18 28 -40z"/>
<path d="M1124 972 c-13 -9 -12 -195 1 -202 6 -3 10 21 10 60 1 86 18 86 85
-2 46 -62 68 -80 71 -60 5 29 3 195 -2 204 -15 24 -25 -4 -24 -66 1 -44 -2
-66 -10 -66 -6 0 -33 29 -59 65 -53 72 -58 77 -72 67z"/>
<path d="M1389 978 c-1 -2 -2 -47 -4 -100 -2 -97 6 -136 23 -110 7 10 9 172 3
205 -1 6 -19 10 -22 5z"/>
<path d="M1529 953 c-43 -37 -21 -81 43 -90 101 -13 124 -26 95 -55 -15 -14
-99 -16 -130 -3 -22 9 -35 -1 -19 -17 14 -14 32 -18 90 -22 34 -3 50 2 71 20
15 13 28 30 28 38 0 28 -42 57 -88 61 -80 6 -110 34 -61 58 31 15 79 13 108
-6 12 -7 24 0 24 14 0 12 -41 23 -89 24 -33 0 -52 -6 -72 -22z"/>
<path d="M1799 977 c-6 -11 -4 -209 3 -213 11 -7 26 35 23 64 -1 14 3 22 14
23 9 0 32 2 51 3 47 3 59 -8 54 -48 -3 -24 1 -36 11 -40 20 -7 21 -2 21 109
-1 80 -4 100 -15 100 -10 0 -15 -12 -16 -36 -3 -57 0 -56 -106 -50 -13 1 -16
9 -13 40 3 28 0 41 -11 45 -8 3 -16 4 -16 3z"/>
<path d="M2565 972 c-6 -4 -10 -14 -10 -22 1 -8 -2 -19 -6 -25 -3 -5 -6 -17
-7 -25 0 -8 -3 -43 -6 -77 -6 -54 -5 -62 9 -57 16 7 17 10 19 66 2 53 20 67
36 29 6 -17 12 -33 11 -36 -1 -3 5 -19 14 -35 24 -46 55 -19 70 59 11 58 43
39 40 -24 -1 -34 12 -68 24 -61 5 3 7 29 5 58 -3 29 -4 61 -5 70 0 10 -4 20
-9 23 -4 3 -6 13 -4 23 2 9 0 24 -6 32 -8 13 -11 13 -24 0 -9 -8 -17 -24 -19
-35 -1 -11 -8 -29 -14 -40 -5 -11 -13 -33 -17 -48 -6 -24 -9 -27 -21 -17 -8 7
-15 19 -15 27 0 8 -5 24 -12 36 -7 12 -14 31 -15 42 -5 26 -25 46 -38 37z"/>
<path d="M2867 965 c-3 -9 -1 -181 2 -196 0 -3 38 -5 84 -5 45 1 81 4 80 9 -2
4 -3 11 -3 16 0 5 -27 8 -61 7 -46 -1 -62 2 -68 14 -17 35 -8 45 44 45 38 0
50 4 50 15 0 11 -11 15 -42 15 -48 0 -65 12 -57 40 4 18 13 20 64 19 40 -1 64
3 71 12 14 17 14 17 -83 18 -45 1 -79 -3 -81 -9z"/>
<path d="M3126 971 c-2 -6 0 -173 3 -197 1 -7 27 -10 73 -9 64 2 74 5 95 29
12 15 24 35 24 44 1 9 3 27 4 40 1 12 -2 25 -7 28 -4 3 -6 9 -3 13 2 5 -7 19
-21 32 -21 20 -36 23 -95 24 -38 1 -71 -1 -73 -4z m146 -39 c7 -7 13 -35 14
-63 1 -40 -3 -52 -18 -60 -27 -14 -108 -18 -109 -5 -7 57 -3 129 8 134 19 11
92 7 105 -6z"/>
<path d="M3419 970 c-13 -7 -15 -27 -15 -99 1 -93 15 -131 34 -95 9 19 11 188
2 197 -3 3 -12 2 -21 -3z"/>
<path d="M3534 968 c-11 -17 9 -28 42 -23 38 5 36 12 38 -107 0 -38 4 -68 9
-68 4 0 11 0 16 0 5 0 8 35 7 78 -2 42 -1 82 1 88 2 6 19 9 38 8 19 -2 35 1
35 6 0 6 0 13 0 18 0 9 -180 10 -186 0z"/>
<path d="M3819 976 c-4 -2 -6 -183 -3 -197 4 -13 19 -16 89 -15 47 1 85 4 85
9 0 4 0 11 0 16 0 5 -31 8 -70 7 -38 -1 -70 1 -71 4 -8 55 -6 57 58 55 27 -1
44 3 47 11 6 15 3 15 -56 18 -20 1 -40 5 -44 9 -9 9 -13 47 -5 48 3 0 34 2 68
2 34 1 68 8 75 15 6 6 10 13 8 13 -5 2 -179 6 -181 5z"/>
<path d="M4087 965 c-2 -5 -3 -53 -3 -105 1 -77 4 -95 16 -95 10 0 15 10 15
33 0 22 6 37 18 44 15 8 26 2 61 -36 39 -43 66 -58 66 -37 0 5 -7 14 -15 21
-27 23 -28 49 -1 81 32 38 32 41 2 76 -22 25 -31 28 -90 28 -37 1 -67 -4 -69
-10z m135 -38 c11 -17 10 -24 -6 -40 -14 -13 -73 -16 -93 -4 -6 4 -10 55 -4
63 6 7 97 -9 103 -19z"/>
<path d="M4361 966 c-6 -8 -8 -183 -2 -206 4 -14 26 25 26 47 1 17 8 29 22 34
17 6 29 -1 61 -37 53 -58 87 -61 42 -4 -25 32 -25 36 5 72 27 32 26 59 -1 88
-18 18 -140 23 -153 6z m136 -45 c10 -38 -28 -53 -109 -42 -11 2 -2 52 10 60
6 3 29 6 52 6 35 0 42 -3 47 -24z"/>
<path d="M4719 968 c-13 -11 -73 -141 -74 -160 0 -3 -3 -10 -7 -14 -5 -4 -8
-13 -8 -20 0 -20 26 -6 37 19 9 19 18 22 59 21 66 -2 63 -1 75 -28 7 -14 17
-22 24 -20 9 4 2 30 -27 97 -22 51 -42 98 -45 105 -3 6 -8 12 -12 12 -4 0 -14
-6 -22 -12z m42 -103 c3 -15 -2 -20 -21 -20 -40 -2 -52 13 -33 41 8 13 11 24
7 24 -5 0 -2 5 6 10 16 10 34 -15 41 -55z"/>
<path d="M4929 976 c-5 -4 -4 -199 2 -207 15 -25 26 4 25 66 -1 37 2 69 6 71
3 2 32 -28 63 -68 79 -101 90 -98 91 24 1 99 -8 136 -25 109 -5 -7 -8 -38 -7
-67 1 -30 -1 -59 -5 -65 -4 -7 -29 18 -63 63 -45 60 -73 84 -87 74z"/>
<path d="M5212 970 c-7 -4 -9 -177 -3 -200 2 -9 156 -6 159 3 7 21 -3 25 -63
23 -48 -2 -65 1 -66 11 -5 49 -5 48 41 48 50 0 80 13 60 25 -6 4 -32 6 -56 5
-24 -1 -44 1 -45 4 0 3 -2 14 -4 23 -5 25 10 31 77 32 32 1 58 4 58 9 0 4 0
11 0 15 0 9 -145 11 -158 2z"/>
<path d="M5531 966 c-8 -10 -58 -126 -65 -151 -2 -5 -6 -18 -11 -28 -10 -24 0
-32 16 -12 8 8 19 22 26 29 24 27 145 4 128 -24 -7 -11 12 -23 24 -15 5 3 -9
47 -31 98 -22 50 -42 97 -44 103 -3 6 -11 11 -20 11 -8 0 -18 -5 -23 -11z m50
-101 c3 -15 -2 -20 -21 -20 -44 -2 -51 12 -28 52 l21 35 13 -23 c6 -13 14 -33
15 -44z"/>
<path d="M5729 978 c-5 -15 -3 -202 3 -211 13 -21 22 3 24 61 1 31 2 60 3 65
3 18 20 2 69 -64 69 -91 79 -85 76 48 -1 54 -2 100 -3 102 0 2 -7 -2 -15 -8
-10 -8 -14 -29 -12 -66 1 -30 0 -59 -3 -64 -4 -6 -31 22 -61 61 -47 62 -77 89
-81 76z"/>
<path d="M2174 878 c-8 -12 9 -15 79 -14 38 1 66 6 65 11 -3 11 -137 14 -144
3z"/>
<path d="M1515 679 c10 -15 242 -149 330 -189 50 -23 98 -46 108 -51 23 -12
169 -71 182 -73 6 -1 15 -5 21 -8 6 -4 22 -9 36 -12 15 -2 35 -9 46 -15 10 -5
30 -12 43 -15 13 -3 42 -10 64 -16 22 -6 49 -13 60 -15 11 -2 20 -4 20 -5 0
-4 94 -24 170 -35 17 -3 44 -7 60 -10 30 -6 64 -10 160 -21 63 -7 493 -7 560
0 46 5 69 8 160 20 57 8 140 23 140 26 0 1 9 3 20 5 19 2 47 8 93 19 12 4 30
8 40 10 9 2 28 9 42 14 14 5 28 10 33 11 20 2 63 14 72 20 6 3 13 6 18 7 4 1
9 3 12 4 3 1 8 3 13 4 26 6 89 30 100 39 6 5 12 6 12 3 0 -4 10 -1 23 6 12 6
27 13 32 14 51 9 473 236 490 264 12 20 -69 0 -109 -27 -108 -72 -465 -241
-516 -245 -3 0 -13 -4 -23 -10 -10 -5 -31 -12 -45 -14 -15 -3 -32 -10 -39 -16
-7 -6 -13 -8 -13 -5 0 3 -16 -1 -35 -9 -19 -8 -35 -11 -35 -8 0 4 -6 1 -13 -5
-8 -6 -17 -8 -20 -5 -3 3 -12 2 -19 -2 -7 -4 -19 -9 -28 -10 -20 -3 -55 -12
-55 -14 0 -1 -13 -3 -30 -6 -34 -4 -70 -12 -70 -14 0 -1 -11 -4 -25 -6 -14 -2
-41 -6 -60 -9 -60 -9 -114 -15 -150 -16 -19 -1 -39 -5 -45 -9 -11 -7 -457 -4
-540 4 -45 4 -77 9 -157 22 -16 2 -40 6 -55 8 -16 3 -41 7 -58 11 -16 4 -41 8
-55 10 -14 2 -25 4 -25 5 0 1 -7 3 -15 5 -91 22 -138 36 -245 71 -83 27 -228
85 -284 114 -22 11 -45 20 -50 20 -7 0 -224 120 -286 158 -15 10 -65 10 -60 1z"/>
</g>
</svg>
